<svg width="48" height="48" viewBox="0 0 48 48" fill="none" xmlns="http://www.w3.org/2000/svg">
<path d="M24 8.5C21.9643 8.5 19.9481 8.9007 18.0674 9.67969C16.1868 10.4587 14.4783 11.6008 13.0391 13.04C11.5997 14.4794 10.4575 16.1879 9.67871 18.0684C8.89994 19.9489 8.49963 21.9647 8.5 24L8.50488 24.3818C8.55149 26.2871 8.94866 28.1688 9.67871 29.9316C10.4575 31.8121 11.5997 33.5206 13.0391 34.96C14.4783 36.3992 16.1868 37.5414 18.0674 38.3203C19.9481 39.0993 21.9643 39.5 24 39.5C26.0357 39.5 28.0519 39.0993 29.9326 38.3203C31.8132 37.5414 33.5217 36.3992 34.9609 34.96C36.4003 33.5206 37.5425 31.8121 38.3213 29.9316C39.1001 28.0511 39.5004 26.0353 39.5 24L39.4951 23.6182C39.4485 21.7129 39.0513 19.8312 38.3213 18.0684C37.5425 16.1879 36.4003 14.4794 34.9609 13.04C33.5217 11.6008 31.8132 10.4587 29.9326 9.67969C28.0519 8.9007 26.0357 8.5 24 8.5Z" fill="#E64E40" stroke="#A73D33"/>
<path d="M18.1136 33V15.5455H24.2159C25.4318 15.5455 26.4347 15.7557 27.2244 16.1761C28.0142 16.5909 28.6023 17.1506 28.9886 17.8551C29.375 18.554 29.5682 19.3295 29.5682 20.1818C29.5682 20.9318 29.4347 21.5511 29.1676 22.0398C28.9063 22.5284 28.5597 22.9148 28.1278 23.1989C27.7017 23.483 27.2386 23.6932 26.7386 23.8295V24C27.2727 24.0341 27.8097 24.2216 28.3494 24.5625C28.8892 24.9034 29.3409 25.392 29.7045 26.0284C30.0682 26.6648 30.25 27.4432 30.25 28.3636C30.25 29.2386 30.0511 30.0256 29.6534 30.7244C29.2557 31.4233 28.6278 31.9773 27.7699 32.3864C26.9119 32.7955 25.7955 33 24.4205 33H18.1136ZM20.2273 31.125H24.4205C25.8011 31.125 26.7813 30.858 27.3608 30.3239C27.946 29.7841 28.2386 29.1307 28.2386 28.3636C28.2386 27.7727 28.0881 27.2273 27.7869 26.7273C27.4858 26.2216 27.0568 25.8182 26.5 25.517C25.9432 25.2102 25.2841 25.0568 24.5227 25.0568H20.2273V31.125ZM20.2273 23.2159H24.1477C24.7841 23.2159 25.358 23.0909 25.8693 22.8409C26.3864 22.5909 26.7955 22.2386 27.0966 21.7841C27.4034 21.3295 27.5568 20.7955 27.5568 20.1818C27.5568 19.4148 27.2898 18.7642 26.7557 18.2301C26.2216 17.6903 25.375 17.4205 24.2159 17.4205H20.2273V23.2159Z" fill="white" fill-opacity="0.6"/>
</svg>
